<?xml version="1.0" encoding="utf-8"?>
<!-- Generator: Adobe Illustrator 19.1.0, SVG Export Plug-In . SVG Version: 6.00 Build 0)  -->
<svg version="1.1" id="Layer_1" xmlns="http://www.w3.org/2000/svg" xmlns:xlink="http://www.w3.org/1999/xlink" x="0px" y="0px"
	 viewBox="0 0 44 44" style="enable-background:new 0 0 44 44;" xml:space="preserve">
<style type="text/css">
	.st0{fill:#1B75BC;}
	.st1{fill:#ECE817;}
	.st2{fill:#292A66;}
	.st3{fill:#12A64D;}
</style>
<g>
	<rect x="19.2" y="3.1" transform="matrix(0.6826 0.7308 -0.7308 0.6826 10.6421 -14.8218)" class="st0" width="6.4" height="3.5"/>
	<rect x="17.1" y="5" transform="matrix(0.6826 0.7308 -0.7308 0.6826 10.3909 -11.9394)" class="st1" width="3.6" height="2"/>
	<g>
		<path class="st2" d="M20.4,8.8c0,0,0.1,0,0.1,0c0,0,0.1,0,0.2,0c0,0,0.1,0,0.2,0c0,0,0.1,0,0.1,0c0,0,0,0,0,0v0.4c0,0,0,0,0,0
			h-0.1c0,0,0,0,0,0l0,0L20.8,9c0,0,0,0,0,0c0,0,0,0-0.1,0c0,0-0.1,0-0.1,0c0,0-0.1,0-0.1,0c0,0-0.1,0-0.1,0c-0.2,0-0.3,0-0.4,0
			c-0.1,0-0.2,0.1-0.3,0.2c-0.1,0.1-0.1,0.2-0.2,0.3c0,0.1-0.1,0.2-0.1,0.3c0,0.1,0,0.3,0.1,0.3c0,0.1,0.1,0.2,0.2,0.3
			c0.1,0.1,0.2,0.2,0.3,0.2c0.1,0,0.3,0.1,0.4,0.1c0,0,0,0,0.1,0c0,0,0.1,0,0.1,0c0,0,0.1,0,0.1,0c0,0,0.1,0,0.1,0c0,0,0,0,0,0
			l0.1-0.3l0,0c0,0,0,0,0,0H21c0,0,0,0,0,0v0.4c0,0,0,0,0,0c0,0-0.1,0-0.1,0c0,0-0.1,0-0.2,0c0,0-0.1,0-0.2,0s-0.1,0-0.2,0
			c-0.1,0-0.2,0-0.3,0c-0.1,0-0.2,0-0.3-0.1c-0.1,0-0.2-0.1-0.3-0.2s-0.1-0.1-0.2-0.2c0-0.1-0.1-0.2-0.1-0.2c0-0.1,0-0.2,0-0.3
			s0-0.2,0-0.3c0-0.1,0.1-0.2,0.1-0.3c0-0.1,0.1-0.1,0.2-0.2c0.1,0,0.2-0.1,0.3-0.1c0.1,0,0.2-0.1,0.3-0.1
			C20.2,8.8,20.3,8.8,20.4,8.8z"/>
		<path class="st2" d="M22,8.8C22,8.8,22,8.8,22,8.8l0.7,1.5l0.7-1.5c0,0,0,0,0,0h0.7c0,0,0,0,0,0v0.1c0,0,0,0,0,0l-0.3,0
			c0,0,0,0,0,0v1.6c0,0,0,0,0,0l0.3,0c0,0,0,0,0,0v0.1c0,0,0,0,0,0h-0.9c0,0,0,0,0,0v-0.1c0,0,0,0,0,0l0.3,0c0,0,0,0,0,0V9h0
			l-0.8,1.7c0,0,0,0,0,0h0h0L21.8,9h0v1.5c0,0,0,0,0,0l0.3,0c0,0,0,0,0,0v0.1c0,0,0,0,0,0h-0.8c0,0,0,0,0,0v-0.1c0,0,0,0,0,0l0.3,0
			c0,0,0,0,0,0V9c0,0,0,0,0,0l-0.3,0c0,0,0,0,0,0V8.8c0,0,0,0,0,0H22L22,8.8z"/>
		<path class="st2" d="M25.5,9.3L25.5,9.3L25.4,9c0,0,0,0,0,0c-0.1,0-0.2,0-0.3,0c-0.1,0-0.2,0-0.3,0.1c-0.1,0-0.1,0.1-0.1,0.2
			c0,0.1,0,0.2,0.1,0.2c0,0,0.1,0.1,0.3,0.1l0.2,0.1c0.2,0.1,0.3,0.1,0.4,0.2c0.1,0.1,0.2,0.2,0.2,0.3c0,0.2-0.1,0.3-0.3,0.4
			s-0.3,0.1-0.6,0.1c-0.1,0-0.3,0-0.4,0c0,0-0.1,0-0.1,0c0,0,0,0,0,0v-0.4c0,0,0,0,0,0h0.1h0l0.1,0.3l0,0l0,0c0.1,0,0.2,0,0.3,0
			c0.1,0,0.3,0,0.3-0.1s0.2-0.2,0.2-0.3c0-0.2-0.1-0.3-0.4-0.4l-0.2-0.1c-0.2-0.1-0.3-0.1-0.4-0.2c-0.1-0.1-0.2-0.2-0.2-0.3
			s0-0.2,0.1-0.3c0.1-0.1,0.2-0.2,0.3-0.2c0.1,0,0.2,0,0.3,0c0.1,0,0.3,0,0.4,0c0,0,0.1,0,0.1,0c0,0,0,0,0,0L25.5,9.3
			C25.6,9.2,25.6,9.3,25.5,9.3L25.5,9.3C25.5,9.3,25.5,9.3,25.5,9.3z"/>
	</g>
	<rect x="21.4" y="3" transform="matrix(0.6826 0.7308 -0.7308 0.6826 10.9114 -16.1791)" class="st3" width="5.3" height="3"/>
</g>
</svg>
