<?xml version="1.0" encoding="utf-8"?>
<!-- Generator: Adobe Illustrator 19.1.0, SVG Export Plug-In . SVG Version: 6.00 Build 0)  -->
<svg version="1.1" id="Layer_1" xmlns="http://www.w3.org/2000/svg" xmlns:xlink="http://www.w3.org/1999/xlink" x="0px" y="0px"
	 viewBox="17 -16 67 67" style="enable-background:new 17 -16 67 67;" xml:space="preserve">
<style type="text/css">
	.st0{fill:#FFFFFF;}
</style>
<rect x="34.3" y="-0.5" transform="matrix(0.6826 0.7308 -0.7308 0.6826 14.8448 -28.5772)" class="st0" width="12.1" height="6.7"/>
<rect x="48.5" y="-7.2" transform="matrix(0.6826 0.7308 -0.7308 0.6826 16.6023 -42.7214)" class="st0" width="17.9" height="9.9"/>
<polygon class="st0" points="47.4,-5.4 51.9,-9.6 48.9,-12.8 40.3,-4.8 54.8,10.8 59,6.9 "/>
<g>
	<g>
		<path class="st0" d="M46.7,12.2c0.1,0,0.3,0,0.4,0c0.2,0,0.3,0,0.5,0.1c0.2,0,0.3,0.1,0.5,0.1c0.2,0,0.3,0.1,0.4,0.1
			c0,0,0.1,0,0.1,0v1.5c0,0,0,0-0.1,0h-0.4c0,0,0,0,0,0c0,0,0,0,0,0l-0.2-1.1c0,0,0,0,0,0c-0.1,0-0.1,0-0.2-0.1
			c-0.1,0-0.2,0-0.3-0.1c-0.1,0-0.2,0-0.3-0.1c-0.1,0-0.2,0-0.3,0c-0.4,0-0.8,0.1-1.2,0.2c-0.3,0.1-0.6,0.3-0.9,0.6
			c-0.2,0.2-0.4,0.5-0.5,0.9c-0.1,0.3-0.2,0.7-0.2,1.1c0,0.4,0.1,0.8,0.2,1.2c0.1,0.4,0.3,0.7,0.6,1c0.2,0.3,0.5,0.5,0.9,0.7
			c0.3,0.2,0.7,0.3,1.1,0.3c0.1,0,0.2,0,0.3,0c0.1,0,0.2,0,0.3,0c0.1,0,0.2,0,0.3,0c0.1,0,0.2,0,0.3-0.1c0,0,0,0,0-0.1l0.2-1.1
			c0,0,0,0,0,0c0,0,0,0,0,0h0.4c0,0,0.1,0,0.1,0v1.5c0,0,0,0-0.1,0c-0.1,0-0.2,0.1-0.4,0.1c-0.1,0-0.3,0.1-0.4,0.1
			c-0.2,0-0.3,0-0.5,0.1c-0.2,0-0.4,0-0.6,0c-0.4,0-0.7,0-1-0.1c-0.3-0.1-0.6-0.2-0.9-0.3c-0.3-0.1-0.5-0.3-0.7-0.5
			c-0.2-0.2-0.4-0.4-0.5-0.7c-0.1-0.2-0.3-0.5-0.3-0.8c-0.1-0.3-0.1-0.6-0.1-0.9c0-0.4,0-0.7,0.1-1c0.1-0.3,0.2-0.6,0.4-0.9
			c0.2-0.3,0.4-0.5,0.6-0.7c0.2-0.2,0.5-0.4,0.8-0.5c0.3-0.1,0.6-0.2,0.9-0.3C46.1,12.2,46.4,12.2,46.7,12.2z"/>
		<path class="st0" d="M51.3,12.3C51.4,12.3,51.4,12.3,51.3,12.3l2.2,5.2l2.1-5.1c0,0,0,0,0,0h2c0,0,0,0,0,0v0.3c0,0,0,0,0,0
			l-0.8,0.1c0,0-0.1,0-0.1,0v5.6c0,0,0,0,0.1,0l0.9,0.1c0,0,0,0,0,0.1v0.3c0,0,0,0,0,0h-2.8c0,0,0,0,0,0v-0.3c0,0,0,0,0-0.1l0.9-0.1
			c0,0,0,0,0,0V13h0l-2.5,6c0,0,0,0,0,0h-0.1c0,0,0,0,0,0l-2.5-5.9h0v5.4c0,0,0,0,0,0l0.8,0.1c0,0,0.1,0,0.1,0.1v0.3c0,0,0,0-0.1,0
			h-2.3c0,0,0,0,0,0v-0.3c0,0,0,0,0-0.1l0.9-0.1c0,0,0,0,0,0v-5.6c0,0,0,0,0,0l-0.8-0.1c0,0-0.1,0-0.1,0v-0.3c0,0,0,0,0.1,0H51.3z"
			/>
		<path class="st0" d="M61.7,14C61.7,14,61.7,14,61.7,14l-0.2-1.1c0,0,0,0,0,0c-0.3-0.1-0.6-0.2-0.9-0.2c-0.3,0-0.6,0.1-0.9,0.3
			c-0.3,0.2-0.4,0.5-0.4,0.8c0,0.3,0.1,0.6,0.4,0.8c0.2,0.1,0.4,0.3,0.8,0.5l0.6,0.3c0.5,0.2,0.9,0.5,1.1,0.7
			c0.3,0.3,0.4,0.7,0.4,1.1c0,0.7-0.3,1.2-0.8,1.5c-0.5,0.3-1,0.5-1.7,0.5c-0.4,0-0.8-0.1-1.2-0.2c-0.1,0-0.2-0.1-0.4-0.1
			c0,0,0,0,0,0v-1.5c0,0,0,0,0,0h0.4c0,0,0,0,0,0l0.2,1.1c0,0,0,0,0,0l0,0c0.2,0.1,0.6,0.2,1,0.2c0.4,0,0.8-0.1,1-0.3
			c0.3-0.2,0.5-0.5,0.5-0.9c0-0.5-0.4-1-1.1-1.3l-0.7-0.3c-0.5-0.2-0.8-0.4-1.1-0.7c-0.3-0.3-0.5-0.7-0.5-1.1c0-0.4,0.1-0.8,0.4-1.1
			c0.2-0.3,0.6-0.5,1-0.7c0.3-0.1,0.5-0.1,0.8-0.1c0.4,0,0.8,0,1.2,0.1c0.1,0,0.2,0.1,0.4,0.1c0,0,0,0,0,0v1.5c0,0,0,0,0,0H61.7z"/>
	</g>
</g>
</svg>
