<?xml version="1.0" encoding="utf-8"?>
<!-- Generator: Adobe Illustrator 19.1.0, SVG Export Plug-In . SVG Version: 6.00 Build 0)  -->
<svg version="1.1" id="Layer_1" xmlns="http://www.w3.org/2000/svg" xmlns:xlink="http://www.w3.org/1999/xlink" x="0px" y="0px"
	 viewBox="0 0 200 120" style="enable-background:new 0 0 200 120;" xml:space="preserve">
<style type="text/css">
	.st0{fill:#1B75BC;}
	.st1{fill:#ECE817;}
	.st2{fill:#292A66;}
	.st3{fill:#12A64D;}
	.st4{fill:none;}
</style>
<g>
	
		<rect x="81.6" y="13.3" transform="matrix(-0.6826 -0.7308 0.7308 -0.6826 154.5249 117.1456)" class="st0" width="42.1" height="23.3"/>
	
		<rect x="67.9" y="26" transform="matrix(-0.6826 -0.7308 0.7308 -0.6826 110.5745 113.289)" class="st1" width="24" height="13.3"/>
	<g>
		<path class="st2" d="M89.5,51c0.2,0,0.6,0,0.9,0.1c0.4,0.1,0.7,0.1,1,0.1c0.4,0.1,0.7,0.1,1,0.2c0.3,0.1,0.6,0.1,0.9,0.2
			c0.1,0,0.1,0.1,0.1,0.1v2.8c0,0.1-0.1,0.1-0.1,0.1h-0.8c-0.1,0-0.1,0-0.1,0l-0.1-0.1l-0.5-2.1c0-0.1-0.1-0.1-0.1-0.1
			c-0.2,0-0.3-0.1-0.5-0.1c-0.2-0.1-0.4-0.1-0.6-0.1C90.4,52,90.2,52,89.9,52c-0.2,0-0.5-0.1-0.7-0.1c-1,0-1.9,0.1-2.7,0.4
			c-0.8,0.2-1.4,0.6-1.9,1.1c-0.5,0.5-1,1-1.2,1.7c-0.2,0.6-0.4,1.4-0.4,2.2c0,0.8,0.2,1.6,0.4,2.4c0.3,0.7,0.7,1.4,1.3,1.9
			c0.5,0.6,1.2,1,1.9,1.3c0.8,0.3,1.6,0.5,2.5,0.5c0.2,0,0.4,0,0.6,0c0.2,0,0.5-0.1,0.7-0.1c0.2,0,0.5-0.1,0.7-0.1
			c0.2-0.1,0.4-0.1,0.6-0.2c0.1-0.1,0.1-0.1,0.1-0.1l0.5-2.1c0,0,0-0.1,0.1-0.1c0,0,0.1-0.1,0.1-0.1h0.8c0.1,0,0.1,0.1,0.1,0.1v2.8
			c0,0.1-0.1,0.1-0.1,0.1c-0.2,0.1-0.5,0.1-0.8,0.2c-0.3,0.1-0.6,0.1-1,0.2c-0.4,0.1-0.7,0.1-1.1,0.1c-0.4,0.1-0.8,0.1-1.4,0.1
			c-0.8,0-1.6-0.1-2.3-0.2c-0.7-0.2-1.4-0.4-2-0.6s-1.1-0.6-1.6-1s-0.8-0.8-1.2-1.3c-0.3-0.5-0.6-1-0.7-1.6
			c-0.2-0.6-0.2-1.1-0.2-1.8s0.1-1.4,0.3-1.9c0.2-0.6,0.5-1.1,0.9-1.6c0.4-0.5,0.8-1,1.4-1.3s1.1-0.7,1.7-1c0.6-0.2,1.3-0.5,2.1-0.6
			C88,51.1,88.8,51,89.5,51z"/>
		<path class="st2" d="M99.9,51.3c0.1,0,0.1,0,0.1,0.1l4.8,9.8l4.8-9.8c0-0.1,0.1-0.1,0.1-0.1h4.5c0.1,0,0.1,0.1,0.1,0.1v0.5
			c0,0.1-0.1,0.1-0.1,0.1l-1.9,0.2c-0.1,0-0.1,0.1-0.1,0.1V63c0,0.1,0.1,0.1,0.1,0.1l2,0.2c0.1,0,0.1,0.1,0.1,0.1v0.5
			c0,0.1-0.1,0.1-0.1,0.1H108c-0.1,0-0.1-0.1-0.1-0.1v-0.5c0-0.1,0.1-0.1,0.1-0.1l2.1-0.2c0.1,0,0.1-0.1,0.1-0.1V52.6h-0.1L104.5,64
			c0,0-0.1,0.1-0.1,0.1h-0.2c-0.1,0-0.1,0-0.1-0.1l-5.5-11.3h-0.1V63c0,0.1,0.1,0.1,0.1,0.1l1.8,0.2c0.1,0,0.1,0.1,0.1,0.1v0.5
			c0,0.1-0.1,0.1-0.1,0.1h-5.1c-0.1,0-0.1-0.1-0.1-0.1v-0.5c0-0.1,0.1-0.1,0.1-0.1l2-0.2c0.1,0,0.1-0.1,0.1-0.1V52.2
			c0-0.1-0.1-0.1-0.1-0.1l-1.9-0.2c-0.1,0-0.1-0.1-0.1-0.1v-0.5c0-0.1,0.1-0.1,0.1-0.1L99.9,51.3L99.9,51.3z"/>
		<path class="st2" d="M123.1,54.5c-0.1,0-0.1,0-0.1-0.1l-0.5-2.1c0-0.1-0.1-0.1-0.1-0.1c-0.6-0.2-1.3-0.4-2.1-0.4
			c-0.8,0-1.4,0.2-2,0.5s-0.9,0.9-0.9,1.5s0.2,1.1,0.8,1.5c0.4,0.2,1,0.6,1.7,0.9l1.4,0.6c1.1,0.4,1.9,0.9,2.5,1.3
			c0.6,0.6,1,1.3,1,2.1c0,1.3-0.6,2.2-1.7,3c-1,0.6-2.3,1-3.9,1c-0.8,0-1.7-0.1-2.7-0.3c-0.3-0.1-0.6-0.1-0.8-0.2
			c-0.1,0-0.1-0.1-0.1-0.1v-2.8c0-0.1,0.1-0.1,0.1-0.1h1c0.1,0,0.1,0.1,0.1,0.1l0.5,2.1c0,0,0,0.1,0.1,0.1l0.1,0.1
			c0.5,0.2,1.3,0.3,2.2,0.3c0.9,0,1.7-0.2,2.3-0.5c0.7-0.4,1-1,1-1.7c0-1-0.8-1.8-2.5-2.5l-1.4-0.6c-1.1-0.4-1.9-0.8-2.4-1.3
			c-0.7-0.6-1-1.3-1-2.1s0.2-1.4,0.8-2.1c0.6-0.6,1.3-1,2.2-1.3c0.6-0.2,1.2-0.2,1.8-0.2c0.9,0,1.7,0.1,2.7,0.2
			c0.2,0.1,0.5,0.1,0.8,0.2c0.1,0,0.1,0.1,0.1,0.1v2.8c0,0.1-0.1,0.1-0.1,0.1h-0.8C123.1,54.3,123.1,54.5,123.1,54.5z"/>
	</g>
	
		<rect x="96.3" y="12.7" transform="matrix(-0.6826 -0.7308 0.7308 -0.6826 175.2566 121.1929)" class="st3" width="35.4" height="19.6"/>
</g>
<rect x="36.7" y="-9.7" class="st4" width="126.7" height="139.3"/>
</svg>
