<?xml version="1.0" encoding="utf-8"?>
<!-- Generator: Adobe Illustrator 19.1.0, SVG Export Plug-In . SVG Version: 6.00 Build 0)  -->
<svg version="1.1" id="Layer_1" xmlns="http://www.w3.org/2000/svg" xmlns:xlink="http://www.w3.org/1999/xlink" x="0px" y="0px"
	 viewBox="0 0 34 34" style="enable-background:new 0 0 34 34;" xml:space="preserve">
<style type="text/css">
	.st0{fill:#FFFFFF;}
</style>
<g>
	
		<rect x="0.8" y="13.5" transform="matrix(-0.6826 -0.7308 0.7308 -0.6826 -0.8507 33.4078)" class="st0" width="12.1" height="6.7"/>
	
		<rect x="15.1" y="6.9" transform="matrix(-0.6826 -0.7308 0.7308 -0.6826 31.7788 37.4474)" class="st0" width="17.9" height="9.9"/>
	<polygon class="st0" points="13.9,8.6 18.4,4.5 15.4,1.2 6.8,9.3 21.3,24.9 25.5,21 	"/>
	<g>
		<path class="st0" d="M11.8,26.2c0.1,0,0.3,0,0.5,0.1c0.2,0.1,0.4,0.1,0.5,0.1c0.2,0.1,0.4,0.1,0.5,0.1c0.2,0.1,0.3,0.1,0.5,0.1
			c0.1,0,0.1,0.1,0.1,0.1v1.4c0,0.1-0.1,0.1-0.1,0.1h-0.4c-0.1,0-0.1,0-0.1,0l-0.1-0.1L13,26.9c0-0.1-0.1-0.1-0.1-0.1
			c-0.1,0-0.2-0.1-0.3-0.1c-0.1-0.1-0.2-0.1-0.3-0.1c-0.1-0.1-0.2-0.1-0.4-0.1c-0.1,0-0.3-0.1-0.4-0.1c-0.5,0-1,0.1-1.4,0.2
			c-0.4,0.1-0.7,0.3-1,0.6c-0.3,0.3-0.5,0.5-0.6,0.9c-0.1,0.3-0.2,0.7-0.2,1.1c0,0.4,0.1,0.8,0.2,1.2c0.2,0.4,0.4,0.7,0.7,1
			c0.3,0.3,0.6,0.5,1,0.7c0.4,0.2,0.8,0.3,1.3,0.3c0.1,0,0.2,0,0.3,0c0.1,0,0.3-0.1,0.4-0.1c0.1,0,0.3-0.1,0.4-0.1
			c0.1-0.1,0.2-0.1,0.3-0.1c0.1-0.1,0.1-0.1,0.1-0.1l0.3-1.1c0,0,0-0.1,0.1-0.1l0.1-0.1h0.4c0.1,0,0.1,0.1,0.1,0.1v1.4
			c0,0.1-0.1,0.1-0.1,0.1c-0.1,0.1-0.3,0.1-0.4,0.1c-0.2,0.1-0.3,0.1-0.5,0.1c-0.2,0.1-0.4,0.1-0.6,0.1c-0.2,0.1-0.4,0.1-0.7,0.1
			c-0.4,0-0.8-0.1-1.2-0.1c-0.4-0.1-0.7-0.2-1-0.3c-0.3-0.1-0.6-0.3-0.8-0.5S8.2,31.5,8,31.2c-0.2-0.3-0.3-0.5-0.4-0.8
			c-0.1-0.3-0.1-0.6-0.1-0.9s0.1-0.7,0.2-1C7.8,28.3,8,28,8.2,27.8c0.2-0.3,0.4-0.5,0.7-0.7s0.6-0.4,0.9-0.5
			c0.3-0.1,0.7-0.3,1.1-0.3C11.1,26.2,11.5,26.2,11.8,26.2z"/>
		<path class="st0" d="M17,26.3C17.1,26.3,17.1,26.3,17,26.3l2.5,5l2.4-4.9c0-0.1,0.1-0.1,0.1-0.1h2.3c0.1,0,0.1,0.1,0.1,0.1v0.3
			c0,0.1-0.1,0.1-0.1,0.1l-1,0.1c-0.1,0-0.1,0.1-0.1,0.1v5.4c0,0.1,0.1,0.1,0.1,0.1l1,0.1c0.1,0,0.1,0.1,0.1,0.1v0.3
			c0,0.1-0.1,0.1-0.1,0.1h-3.2c-0.1,0-0.1-0.1-0.1-0.1v-0.3c0-0.1,0.1-0.1,0.1-0.1l1.1-0.1c0.1,0,0.1-0.1,0.1-0.1V27h-0.1l-2.8,5.7
			l-0.1,0.1h-0.1c-0.1,0-0.1,0-0.1-0.1L16.4,27h-0.1v5.2c0,0.1,0.1,0.1,0.1,0.1l0.9,0.1c0.1,0,0.1,0.1,0.1,0.1v0.3
			c0,0.1-0.1,0.1-0.1,0.1h-2.6c-0.1,0-0.1-0.1-0.1-0.1v-0.3c0-0.1,0.1-0.1,0.1-0.1l1-0.1c0.1,0,0.1-0.1,0.1-0.1v-5.4
			c0-0.1-0.1-0.1-0.1-0.1l-1-0.1c-0.1,0-0.1-0.1-0.1-0.1v-0.3c0-0.1,0.1-0.1,0.1-0.1L17,26.3L17,26.3z"/>
		<path class="st0" d="M28.7,27.9C28.6,27.9,28.6,27.9,28.7,27.9l-0.3-1.1c0-0.1-0.1-0.1-0.1-0.1c-0.3-0.1-0.7-0.2-1.1-0.2
			c-0.4,0-0.7,0.1-1,0.3c-0.3,0.2-0.5,0.5-0.5,0.8s0.1,0.6,0.4,0.8c0.2,0.1,0.5,0.3,0.9,0.5l0.7,0.3c0.6,0.2,1,0.5,1.3,0.7
			c0.3,0.3,0.5,0.7,0.5,1.1c0,0.7-0.3,1.1-0.9,1.5c-0.5,0.3-1.2,0.5-2,0.5c-0.4,0-0.9-0.1-1.4-0.2c-0.2-0.1-0.3-0.1-0.4-0.1
			c-0.1,0-0.1-0.1-0.1-0.1v-1.4C24.9,31,25,31,25,31h0.5c0.1,0,0.1,0.1,0.1,0.1l0.3,1.1c0,0,0,0.1,0.1,0.1l0.1,0.1
			c0.3,0.1,0.7,0.2,1.1,0.2c0.5,0,0.9-0.1,1.2-0.3c0.4-0.2,0.5-0.5,0.5-0.9c0-0.5-0.4-0.9-1.3-1.3l-0.7-0.3c-0.6-0.2-1-0.4-1.2-0.7
			C25.1,28.8,25,28.4,25,28s0.1-0.7,0.4-1.1c0.3-0.3,0.7-0.5,1.1-0.7c0.3-0.1,0.6-0.1,0.9-0.1c0.5,0,0.9,0.1,1.4,0.1
			c0.1,0.1,0.3,0.1,0.4,0.1c0.1,0,0.1,0.1,0.1,0.1v1.4c0,0.1-0.1,0.1-0.1,0.1L28.7,27.9C28.7,27.8,28.7,27.9,28.7,27.9z"/>
	</g>
</g>
</svg>
